<svg width="60" height="48" viewBox="0 0 60 48" xmlns="http://www.w3.org/2000/svg" xmlns:xlink="http://www.w3.org/1999/xlink">
  <path fill="#4547e0" d="M45.28 16.768v-8.17c0-1.143-.642-1.714-1.928-1.714h-6.697a.826.826 0 0 1-.589-.228.773.773 0 0 1-.258-.576V.83c0-.25.097-.45.258-.602a.826.826 0 0 1 .59-.228H48.28c.518 0 1.023.045 1.514.134a5.71 5.71 0 0 1 1.553.549 5.221 5.221 0 0 1 1.42 1.045c.402.42.728.986.978 1.7.25.715.375 1.536.375 2.465v10.366c.018.482.116.83.294 1.045l5.384 6.24c.286.34.268.706-.053 1.099l-5.33 6.107c-.197.214-.295.562-.295 1.045v10.312c0 1.16-.183 2.147-.55 2.96-.365.812-.857 1.42-1.473 1.821a6.6 6.6 0 0 1-1.848.858A7.387 7.387 0 0 1 48.28 48H36.655a.855.855 0 0 1-.589-.214.76.76 0 0 1-.258-.59V41.92c0-.25.097-.451.258-.603a.826.826 0 0 1 .59-.228h6.696c1.286 0 1.928-.553 1.928-1.66v-8.117c0-.446.108-.776.322-.99l5.295-5.558a1 1 0 0 0 .005-1.373l-5.3-5.659c-.214-.196-.322-.518-.322-.964zm-10.33.758l1.572 1.572a7 7 0 0 1 0 9.9L34.95 30.57a7 7 0 0 1-9.9 0l-1.572-1.572a7 7 0 0 1 0-9.9l1.572-1.572a7 7 0 0 1 9.9 0zm-20.23-.758c0 .446-.108.768-.322.964l-5.3 5.659a1 1 0 0 0 .005 1.373l5.295 5.557c.214.215.322.545.322.991v8.117c0 1.107.642 1.66 1.928 1.66h6.697c.232 0 .428.076.589.228.16.152.258.353.258.603v5.276a.76.76 0 0 1-.258.59.855.855 0 0 1-.59.214H11.72a7.387 7.387 0 0 1-1.97-.254 6.6 6.6 0 0 1-1.847-.858c-.616-.401-1.108-1.009-1.474-1.821-.366-.813-.549-1.8-.549-2.96V31.795c0-.483-.098-.83-.294-1.045l-5.33-6.107c-.322-.393-.34-.76-.054-1.098l5.384-6.241c.178-.215.276-.563.294-1.045V5.893c0-.929.125-1.75.375-2.464.25-.715.576-1.282.978-1.701.402-.42.875-.768 1.42-1.045a5.71 5.71 0 0 1 1.553-.55C10.697.046 11.202 0 11.72 0h11.625c.232 0 .428.076.589.228.16.151.258.352.258.602v5.25a.773.773 0 0 1-.258.576.826.826 0 0 1-.59.228h-6.696c-1.286 0-1.928.571-1.928 1.714v8.17z" />
</svg>
