<svg xmlns="http://www.w3.org/2000/svg" viewBox="0 0 758.44208 758.40002"><path d="M658.342 595.6c-10 5.9-20 11.9-30.6 16.7-14.4 5.5-29.5 9-44.7 11.7-14.3 2.6-28.7 5.1-43.1 7.2-49.5 6.3-99.7 5.5-149.2-.8-.7-.1-1.5-.2-2.2-.3-10-3.1-20.3-5-30.9-5.2-2.1 0-4.2.2-6.2.6-2.9-1.5-5.8-2.9-8.7-4.2-6-2.7-11.4-4.3-18.1-3.4-1.1.2-2.3.4-3.4.7-2.9-1.1-5.7-2.2-8.6-3.3-8.2-3.2-16.4-5.9-25-7.8-8.3-4.9-18.7-6.4-27.7-3.4-1.7-.1-3.4-.2-5-.3-2.7-.9-5.5-1.9-8.2-2.8-2-.7-4.3-2-6.4-2.5-.9-.4-1.9-.9-2.8-1.4-8.5-4.3-18-4.7-26-1-5.6-1.7-11.1-3.5-16.6-5.3-13.7-4.5-27.5-8.6-41.6-11.6-14.3-3-29.4-5.6-44.1-4.1-6.3.7-12.7 3.2-17.1 7.7-6.2-1.4-12.6-2.1-18.9-1.4-3.2.3-6.4 1.4-9.1 3.1v.2c.2 1.2.5 2.4.9 3.6.5.6 1.1 1.3 1.6 1.9.7.8 1.1 1.6 1.4 2.4 5.1 5.8 10.3 11.4 13.1 19.1.1.1.1.3.1.5 1.2 1.3 2.3 2.7 3.4 4.1.4.4.6.9.9 1.4 1.3.5 2.7.9 4 1.5l1.5.6c.2.1.5.2.8.4 1.3.6 2.6 1.2 4 1.8 3.3 1.5 6.5 3.1 9.8 4.6 15.4 7.1 30.3 12.6 47.5 9.6 2.9-.5 5.5-2 7.7-4 7.4 2.6 14.7 5.3 21.9 8.2 2.3.9 4.6 1.9 7 2.8 1 .4 2.5 1.1 4.4 1.9-3.8-1.7-4.9-2.1-3-1.3l4.2 1.8c9.1 3.9 18.3 7.5 27.7 10.7 13.2 4.4 26.8 7.3 40 11.5 21.2 12.4 47.2 16.7 70.5 22.5 15.1 3.7 29.8 8.9 44.9 12.6 19.9 4.9 40.4 8.4 60.9 9.4 39.2 1.9 79.4 4.6 118.3-1.5 2.7-.4 5.4-.9 8.1-1.5.3-.3.6-.5 1-.7 14.8-8 28.8-17.5 41.8-28.2 23.6-19.4 44.5-42 63.1-66.1 8.2-10.6 15.9-21.5 22.8-32.9 1.1-1.9 2.3-3.7 3.4-5.6-13.6 5.3-26.6 12.1-39.5 19.8z" fill="#a7b874"/><path d="M743.142 291.9c-.1-13.1-7.5-25.3-10.2-38.1-2.5-11.7-9.6-29.5-16.3-39.5-6.1-9.1-6.7-9.4-17.8-7.9-10.2 1.4-19.9 8.9-22.4 19.3-4 17 .5 33.6 6 49.7 2.3 6.7 4.7 13.4 6.5 20.3.3 1.2.6 2.5.8 3.8.2 3.5.1 7-.1 10.6 0 .2-.1.3-.1.5-.3 1.4-.6 2.8-1 4.1-.5 1.7-1.1 3.4-1.6 5.1-1.4 2.9-2.9 5.6-4.7 8.3-1 1.5-2 3.1-3.1 4.6l-.1.1c-6.2 7.3-12.9 14.1-19.7 20.8-6 3.4-12 6.6-17.9 10-1.1.6-2.1 1.2-3.2 1.9-4.8 1-9.4 3.4-13.4 7.1-4.1 3.9-8.2 7.6-12.5 11.3-3.9 1.3-7.7 3.4-11.2 6.3-14.9 12.5-28.3 28.2-35.6 46.5-6.3 2.8-11.3 8.3-13.9 15.7-2.1 5.8-3.9 11.7-5.5 17.7-3.5 10.3-7.2 20.6-10 31.1-5.1 19.4-6.8 39.6-1 59 .2.5.4 1.1.5 1.6 0 1.4 0 2.8.1 4.2.1 2.9.7 5.8 1.7 8.5.1 3.6.1 7.2.3 10.8 0 .6.1 1.5.1 2.1-.2 1.4-.4 2.8-.4 4.2-.1 3.5.2 6.9.3 10.4.2 11.4 8.4 21.1 18.6 24.2 9.8-7.4 20.3-13.7 30.9-19.9.2-1.1.7-2.1 1.7-2.9 3.4-2.8 6.9-5.4 10.4-7.9 14.6-11.2 28.6-23.1 40.7-37-.2-7.6-3.6-15.1-8.6-21-.6-.7-1.3-1.4-2-2.1-.2-.6-.3-1.3-.5-1.9 0-.3-.1-.6-.1-.9-.2-2.4-.4-4.7-.5-7.1-.1-1.7-.2-3.5-.2-5.2.1-1.8.3-3.5.4-5.3.6-8.9.8-17.8.6-26.7 4.1-16.3 9.4-32.3 13.6-48.5.2-.7.3-1.4.5-2.1 12.5-9.1 25.2-18 35.3-29.5 2.8-1.3 5.6-3 8-5.3 2.4-2.3 4.9-4.5 7.3-6.7 9.6-5.7 18.8-12.1 25.6-20.7.1-.1.2-.1.3-.2 12-11.5 17.7-27.1 20.5-43.4.9-3.1 1.7-6.3 2.2-9.5 1.9-10.7 1.9-20.7.7-30.5z" fill="#b9b4ae"/><path d="M708.642 193.4c-3.7-13.2-12.4-23.3-23.8-30.5-.5-1-1.1-1.9-1.6-2.8-12.7-21.4-31.4-39.2-50.4-55-8.6-7.1-17.4-17-26.5-23.6-1.1-.8-2.4-3.5-3.8-4.1-16.8-14.6-33.4-17.3-51.3-30.6-6.4-4.7-19.8-15.9-27.5-13.8-.2 0-.3-1.1-.5-1.1-1.6-1.4-3.5-.6-5.5-1.6-5.6-2.7-11.3-2-17.2-3.9-23-9-46.3-19.2-71.2-18.2-3.6-.6-7.2-1-10.9-1.3-23.7-3.7-49.1-1.7-72.7-1.4h-5.1c-4.5.1-9 1.2-13.2 3.1-6.3 1-12.6 2.2-18.8 3.6-14.6 2.5-29.2 7.6-43.7 10.5-25.6 5.2-52.3 18.5-74.6 32.5-13.8 8.7-26.2 11-34.2 25.3-6.4 11.3-5.4 25.3 2.5 35.5 4.7 6.1 11 9.9 17.9 11.5 3.5 1.3 7.2 1.9 11.1 1.7 6.6-.4 13.1-1.3 19.4-2.6 6.4 6.5 14.8 10.2 23.8 10.6 1.7 7.8 6 15.1 12.6 20.1 2.7 2.1 5.6 3.7 8.5 4.8.7.9 1.5 1.7 2.3 2.5 9.9 9.1 24.7 11.8 36.7 4.7 1.7-1 3.2-2 4.7-3.2 2.5-1.9 4.9-3.8 7.3-5.7-6 4.6-5.2 4 2.4-1.9 2.4-2.3 4.6-4.9 6.7-7.6l2.4 2.1c1.8 2.6 3.8 5 6.2 7.1 8.1 7.3 18.2 11.3 28.8 10.2 11.6 3 23.7 4.2 35 3.8 15.1-.5 31.4-3.3 44.3-11.4 7.9-4.9 14.8-11.2 20.7-18.3 3-3.6 5.9-7.2 9.1-10.6 2.2.1 4.3.3 6.5.5 20.7 3.4 40.7 10 60.1 17.9 8.3 3.6 16.5 7.4 24.7 11.3 3.2 2 6.4 4 9.7 5.9 1.5 1.3 2.9 2.7 4.3 4 8.4 8.1 19.8 11.5 30.6 9.8.6 4.5 2 8.9 4.5 13.1 3.6 6.1 7 12.2 10 18.6 1.7 4.5 3.1 9.1 4.3 13.9.3 1.2.6 2.3 1.1 3.4-.3 1.2-.7 2.3-1.1 3.5-4.9 10.3-10.5 20.4-12.3 31.7-1.3 8.1-1.5 15 1.8 22.8 2.8 6.7 7.7 13.2 14.3 16.7 5.5 2.9 11.5 4.5 17.7 4.8 7.6.3 19.9-3.9 24.7-10.3 7.2-9.2 13.1-18 17.7-28.7 2.6-6 5-12.1 7.3-18.1 3.8-2.7 7-6.2 9.1-10.8 1.7-3.6 3.4-7.2 5.1-10.9 9.7-10.2 13.8-25.9 10-39.5z" fill="#92a8cd"/><g fill="#a7b874"><path d="M651.242 297.4c1.4-17.8-4.1-34.6-7.3-51.9 0-.2-.1-.5-.1-.7-7.9-15.8-18.9-30.2-24.1-47.1-.6-.7-1.3-1.5-1.9-2.2-1.4.8-3.2.8-5-.5-11.9-8.2-19.3-20.3-28.8-30.6-11-5.1-22.2-9.8-32.5-16.1-1.2-.8-2-1.8-2.4-2.9-4.6-1.2-9.3-2.2-13.9-3.5-16.4-4.4-31.8-10.8-48.8-12.2-34.5-3-66.7 6.5-99.2 17.1-1.5.5-2.7.4-3.8-.1-9.7 3.8-19.2 8.6-27.5 14.9-3.9-8.7-11.4-16.3-20.5-18-6.1-1.1-12.4-2.1-18.3-4-.1-.1-.2-.1-.4-.2-1.2-.8-2.5-1.4-3.9-2-6.5.9-13 3.1-19.3 5-4.5 1.4-8.4 2-11.8-1.9-6.9-8.1-7-19.2-11-28.5-.8-.9-1.7-1.7-2.6-2.6-21.6-20.8-52.5-32.9-82.3-34-15.6-.6-33.9 2.8-46.6 12.5-3.8 2.9-7.5 6-10.1 9.8-20.8 15.1-34.8 37.2-49.4 58-28.2 40.4-52 84.5-65.7 132.1-10.8 37.6-12.5 77.5-10.9 116.6 1.4 32.3 9.1 66.1 20.3 96.6 6.4 17.3 8 35.1 22.3 47.3 17.2 14.6 38.3 19.8 60.4 14.3 14-3.5 23.8-20 19.3-34-.6-1.9-1.4-3.8-2.4-5.5 2-6.1 3.7-12.3 5.4-18.5 1.8-.2 3.6-.5 5.3-1 10.6-2.9 22.7-12.8 24.4-24.4 1.9-13 3.7-26 5.6-38.9 20.7 11.4 48.5 5.6 61.2-16 4.6-7.9 6.7-16.4 7.2-25.1 6.1-.8 12.4-3.3 17.5-5.9 5.3-2.7 9.9-6.6 14.3-10.6 8.4-7.7 15.3-17.5 21.4-27.1 7.6-12 14.2-24.9 18.8-38.4 4.6.1 9.2-.4 13.7-1.4 7 4.4 15.5 6.4 23.7 5.3 13.5-1.8 23.7-10.8 28-22.9 1.7-1.7 3.5-3.4 5.3-4.9 6.1-4.4 12.6-8.2 19.4-11.5l1.8-.6c5.7 1.2 12 1.1 16.6-.4 8.4-2.7 16.4-7.9 20.7-15.9.3-.5.6-1 .8-1.5 8 1.4 16.4.6 24-2 .5-.2 1-.3 1.5-.5 3.5 3.4 7.7 6.2 11.9 7.9 9 3.8 22.1 4.7 30.4-1.7 1.8-1.4 3.8-2.6 5.8-3.7 2.2-.7 4.4-1.3 6.7-1.8 2.6-.2 5.2-.2 7.8-.1-.2 1.2-.4 2.5-.5 3.8-.4 3.7-.1 7.7.7 11.6-3 5.9-4.6 12.6-4.3 18.8.2 4.1 1.1 8.1 2.4 11.8-.1 1.2-.2 2.3-.3 3.5-.4 2.1-.8 4.1-1.3 6.2-7 9.2-12.7 19.4-16 30.5-2.8 9.6-.5 20.9 5.4 29.3-.8 3.1-1.5 6.3-2.1 9.4-2.6 13.6.7 26.7 12.1 35.5 5 3.9 11.5 6.4 18.2 7.1 11.3 3.2 24 .4 32.7-8.4 10.2-10.3 19.9-21.8 27.2-34.4 2.5-2.3 4.8-4.9 6.8-8 .3-.5.6-.9.9-1.4 4-4.9 7.7-10 11.2-15.3.9-.7 1.7-1.4 2.5-2.1 7-6.4 12-14 16.1-22.2.9-1.2 1.7-2.4 2.4-3.8 4.8-8.8 12.6-13.5 12.3-28.3.6-1.4 1.2-2.9 1.6-4.4.3-.9.7-2.1 1-3.3z"/><path d="M85.842 508.7c.3.2.5.3.7.4-.1-.1-.2-.2-.4-.3-.1-.1-.2-.1-.3-.1z"/></g><path d="M453.242 367.2c-8 1.8-15.8 1-23.2-1.6-8.5-3-16.4-8.5-23.3-15.4l.7-.7c-10.1-21.6 18.1-36.9 34.1-36.9 17.7 0 55.9 26.4 34.5 46.4l.1.2c-7.6 3.6-15.4 6.3-22.9 8zm-20.2-6.5c8.6 2.4 20.2-3.1 22.6-10.6 1.5-4.8-5.6-16.5-14.2-18.9-8.6-2.4-21.3 6.5-21.8 11.2-.8 7.8 4.8 15.8 13.4 18.3z" fill="#fff"/><path d="M140.242 498.4c28.5-4 44.4-7.4 61.3-32.4 4.1-6 12.7-8.7 20 2.3 8.6 15.5 6.9 11.4 1.5 29.3-1 3.3-2.1 6.6-3.6 9.7-4 8.1-14 26.2-15.8 35.2-.6 3.3-1.2 6.9-1.7 10.6-38.7-1.8-77.8-1.5-114.6 3.2l-3-22.4c1.6-9.4 7.3-17.5 14.1-23.6 6.9-6 22.4-12.2 30.4-16.4 7-3.6 13.9-10.2 20.9-13.8-1 6.9-4.5 13.5-9.5 18.3zm199.6 66c-1.2.4-2.5.8-3.7 1.2l-.2-.6c-33.8-3.7-70.8-7.9-108.6-10.5l-.5-.1c7.4-14.6 13.1-13.5 27.8-22 6.7-3.9 13.6-8.3 20-13.3l2.7 1.8c20.8 7.2 40.7 29.9 62.5 43.5zm114.4-131c6.6-10.5 18.1-11.9 24.3-9.9.8.3 1.6.6 2.2 1 16.3 5.6 45.2 18.4 62.7 17.8-12.9 12.1-26.2 23.6-39.7 34.3-13.4 10.6-26.8 20.3-40.2 29.1-4.1-10.1-8.4-19.5-9.8-24.4-7-24.4-4.9-39.3.5-47.9zm-140.7 76.4c18.9-13.5 31.7-42.5 30.5-66.1v-.2c17.4-3.4 33.4 6.3 43.5 21.9 11.4 18.5 28.7 40.5 47.6 57l-.6.7c-11 6.2-22 11.8-33.2 17.1-19.9 9.3-40.2 17.2-61.1 24 9.9-6.2-22.8-40.8-27.2-44.2-1.1-.9-2.3-1.8-2.8-3-1.1-2.6 1-5.5 3.3-7.2z" fill="#a7b874"/><path d="M243.042 437.1c-10.3-2.5-21.8-9.1-26.8-19l-.5-.2c5.1-9.6 12.2-21.5 20.3-33.9-2.4 17.2 2 20.9 8.3 30.7 6.7 10.3 24.2 17.2 35.8 18.5-13.4 6.1-26.8 6.4-37.1 3.9zm235.5-13.6c-6.2-2-17.7-.7-24.3 9.9l-1.3-.6c-3.2-24-44.7-41.3-72.4-38.1 12-8.3 27.9-16.4 41.8-15.9 11.3.4 31.3 10.7 42.5 11.7s36.8-22 45.6-30.6c0 .3.1.6.1.9 1.5 17.9-12 47-31.7 62.4l-.3.3z" fill="#fff"/><path d="M362.942 222.2c.9-.7 1.9-1.2 3-1.8l.1.3c29.6 2.5 39 24 36.6 26-17.2 14.7-23 30.3-24.1 40.9-2.8-1.7-5.4-4.2-7.8-7.2-13.4-16.7-20.2-49.4-7.8-58.2zm180.3-11.1c9.8 9.7 6.4 52.6-11.5 68.7-7-18-27.2-29.8-28.3-41.4-.6-6.8 11.5-26.6 39.8-27.3z" fill="#eba895"/><path d="M344.142 443.7c1.2 23.6-11.6 52.6-30.5 66.1-2.3 1.6-4.4 4.5-3.3 7.2.5 1.3 1.7 2.2 2.8 3 4.5 3.4 37.1 38.1 27.2 44.2-.1 0-.3.1-.4.2-21.9-13.6-41.8-36.3-62.6-43.6l-2.7-1.8c6.4-5 12.3-10.6 17-16.8 14.2-18.7 20.5-45.2 43.3-55.7 3.1-1.4 6.2-2.4 9.2-3v.2zm134.5-20.6c19.8-15.4 33.2-44.5 31.7-62.4l10-.6c1.7 29.9 12.9 59.5 36.2 68.2l.6.6c-4.6 4.5-9.2 9-13.9 13.4-17.4.6-46.3-12.2-62.7-17.8-.6-.4-1.4-.7-2.2-1l.3-.4zm24.8-184.6c-.6-6.9 11.5-26.7 39.8-27.3-.1-.1-.2-.2-.4-.3-11.5-10-27.6-2.2-38.6 4.2-15.2 8.8-32.9 11.8-50 13.7-11.4 1.2-28.8-.6-39.9-3.6-6.9-1.9-13.1-2.8-19.9-5-8.4-2.6-20-3.7-28.4.4l.1.3c29.6 2.5 39 24 36.6 26-17.2 14.7-23 30.3-24.1 40.9-.2 2.3-.3 4.3-.1 6.1 1.2 17.2 12.3 40.5 28.4 56.5l.7-.7c-10.1-21.6 18.1-36.9 34.1-36.9 17.7 0 55.9 26.4 34.5 46.4l.1.2c18.8-8.8 36.9-22.9 48.2-40.3 2.6-4.1 4.9-8.3 6.7-12.7 4.1-10.1 3.6-18.7.6-26.3-7.1-18.2-27.3-30-28.4-41.6z" fill="#3f5165"/><path d="M430.142 365.6c7.4 2.6 15.2 3.4 23.2 1.6 7.5-1.7 15.3-4.4 23-8 18.8-8.8 36.9-22.9 48.2-40.3h.1c-3.4 12.2-4.9 26.8-4 41.2l-10 .6c0-.3 0-.6-.1-.9-8.8 8.6-34.3 31.6-45.6 30.6-11.2-1-31.2-11.3-42.5-11.7-13.9-.4-29.8 7.6-41.8 15.9 27.7-3.2 69.2 14.2 72.4 38.1l1.3.6c-5.4 8.6-7.4 23.5-.6 47.8 1.4 4.9 5.6 14.3 9.8 24.4 2.2 5.3 4.3 10.9 5.9 16 3.6 11.2 4.8 20.6-1 22.2-3.8-1.5-7.6-3.4-11.5-5.6-7.3-4.2-14.6-9.6-21.7-15.8-18.9-16.5-36.2-38.5-47.6-57-10.1-15.6-26-25.3-43.5-21.9-3 .6-6.1 1.6-9.2 3-22.8 10.5-29.1 36.9-43.3 55.7-4.7 6.2-10.6 11.8-17 16.8s-13.3 9.4-20 13.3c-14.7 8.5-20.4 7.5-27.8 22-1.7 3.4-3.5 7.6-5.6 12.9-1.3 3.4-8.5 25.6-15 24.4-.5-.1-1-.3-1.5-.7-5.6-.4-5.2-19.9-2.7-38 .5-3.6 1.1-7.2 1.7-10.6 1.7-9 11.8-27.2 15.8-35.2 1.5-3.1 2.7-6.4 3.6-9.7 5.3-17.9 7.1-13.8-1.5-29.3-7.3-11-16-8.3-20-2.3-17 25-32.8 28.4-61.3 32.4 5-4.7 8.5-11.4 9.7-18.4-7 3.6-13.9 10.2-20.9 13.8-8 4.1-23.5 10.3-30.4 16.4-6.9 6-12.6 14.2-14.1 23.6-10.4-31.8 14-74.5 41.3-89.2 20.3-11 41.4-12.5 64.1-13.1 7.2-.2 16.3 1.6 21-3.3 1.3-3 3-6.4 5.1-10.2l.5.2c5 10 16.5 16.5 26.8 19s23.7 2.2 37.2-3.9c-11.6-1.3-29.1-8.2-35.8-18.5-6.3-9.8-10.7-13.5-8.3-30.7 17.4-26.5 39.6-55.4 57.7-69.3 20.1-15.5 45.7-25.2 76.1-33.2l.8-1c2.4 3 5 5.5 7.8 7.2-.2 2.3-.3 4.3-.1 6.1 1.2 17.2 12.3 40.5 28.4 56.5 6.5 7 14.4 12.5 22.9 15.5z" fill="#3f5165"/><path d="M204.742 591c-5.6-.4-5.2-19.9-2.7-38-38.7-1.8-77.8-1.5-114.6 3.2-13.2 1.7-26.1 4-38.6 6.9 2.2 2.5 4.6 4.7 6 7.1 1.7 4.5 4 8.4 6.6 12.2 47-4.4 96 .9 144.7 9.6v-.2c-.4-.2-.9-.5-1.4-.8zm12.3 2.8c-3.6-.7-7.2-1.3-10.8-2v-.2c6.5 1.2 13.7-21 15-24.4 2-5.3 3.8-9.5 5.6-12.9l.5.1c37.8 2.6 74.8 6.8 108.6 10.5l.2.6c-37.2 11.9-76.5 20.4-119 27.5l-.1.8zm287.4-113.2c-11.9 12.9-24 26.5-35.1 41-1.6-5.1-3.8-10.7-5.9-16 13.5-8.8 26.8-18.5 40.2-29.1 13.5-10.7 26.8-22.2 39.7-34.3h.5c-17.5 17.8-28.4 26.5-39.4 38.4zm-47.6 57.6l-1 2.1c-18.7 28-32.1 58.5-32.4 91.1l-.1 1c-11.7-1.1-23.4-2.6-35.1-4.4-24.6-3.7-50.1-8.8-76.1-14.4 22.1-32.4 52.7-53.6 89.3-73.5 11.2-5.2 22.2-10.9 33.2-17.1l.6-.7c7 6.3 14.3 11.7 21.6 15.9z" fill="#b9b4ae"/><path d="M642.242 360.5c-20.5 10.9-39.1 25.4-54.9 42.5l-2.8-2.5c45.3-49.8 84.3-106.4 111.9-163.2 1.7-3.4 3.3-6.9 5-10.4h.1c-5 10.1-4.8 22.5-3 33.8 2 12.9 5.8 25.8 4.7 38.9-2.7 34.4-34.6 46.9-61 60.9zm-240.9 179.7c-36.6 19.9-67.2 41.1-89.3 73.5-31.1-6.6-63-13.9-95.1-19.9l.1-.8c42.5-7.1 81.7-15.6 119-27.5 1.2-.4 2.5-.8 3.7-1.2h.1c.1-.1.2-.1.4-.2 21-6.7 41.2-14.6 61.1-23.9z" fill="#aa9a8a"/><path d="M423.442 631.4c.3-32.6 13.7-63.1 32.4-91.1l1-2.1c3.8 2.2 7.7 4.1 11.5 5.6 5.8-1.6 4.6-11 1-22.2 11.1-14.4 23.2-28.1 35.1-41 11-11.9 21.9-20.6 39.4-38.4h-.5c4.7-4.4 9.3-8.8 13.9-13.4 9.3-9.2 18.4-18.7 27.3-28.4l2.8 2.5c-17.9 19.4-32.2 42-41.8 66.6-19.5 50.5-20.1 108.6 6 155.8-3.8 2.3-7.7 4.6-11.6 6.8-38 4.3-77.2 4-116.8.1l.3-.8zm323.9-329.8l8.3 74.7c-30.3 68-60 114.3-111.2 170.7-27.3-10.3-17.2-58.4-10.9-79.5 8.4-28.1 25.6-53.8 49.4-71.2 19.1-13.9 41.9-23.2 52.2-45.7.4-.7 11.9-48.3 12.2-49z" fill="#aa9a8a"/><path d="M70.442 537.1l-2.1-5.1c-1.3-2.5-3.2-4.5-5.5-6-1.3-1.3-2.9-2.2-4.7-2.7-1.7-1-3.4-1.4-5.4-1.4-1.9-.5-3.8-.5-5.6 0-2.8.1-5.5 1-7.9 2.5-.3.1-.5.3-.8.4-1.5.8-2.9 1.9-4 3.1 7.2 11.9 15.2 23.8 17.6 37.2 2-.2 3.9-.8 5.7-1.8 2.7-.9 5-2.4 7-4.5 2.7-2.7 4.5-5.9 5.6-9.6.1-.3.1-.6.2-.9.3-1.9.5-3.8.8-5.6-.4-1.9-.7-3.8-.9-5.6zm684.5-136c3.2-9-10.9-12.7-14.2-3.9-2.3 5.9-3.8 11.9-5.1 18-.6.8-1 1.7-1.4 2.8-.5 1.6-.9 3.2-1.3 4.8l-.2.2c-2 .8-3.8 2.2-5.2 4.6-11.1 20-23 38.9-37.4 56.7-2.2 2.7-2.8 5.7-2.4 8.3-2.3 2-4.5 3.9-6.6 5.8-4.3 3.9 1.4 11.5 6.3 8.1 2.8-1.9 5.6-3.9 8.5-5.8 2.5.3 5.3-.4 7.9-2.7 4.7-4.1 8.7-8.9 12.5-13.9 1.3-1.4 2.4-2.8 3.5-4.3.4.1.8.2 1.2.2 3.1.9 6.6.6 9.7-1.7 1-.7 1.8-1.4 2.7-2.1.1-.1.2-.2.3-.4 5.3-4.9 8.1-10.6 11.9-17.1 1-1.6 1.5-3.4 1.5-5.2 3.1-6.8 6.1-14.1 5.7-21.6-.1-3.1-1.6-6-3.8-8.2.1-.6.2-1.1.3-1.7.2-1.2.2-2.4 0-3.4 1.4-3.2 2.4-6.5 2.6-10 1.1-2.4 2.1-4.9 3-7.5z" fill="#a7b874"/><path d="M552.442 706.2c-8.7.8-17.2 3.2-25.6 5.8-4.3-2.6-9.9-2.7-14.7-.2l-1.2.6c-.9.3-1.8.6-2.7.8.1 0-3.2.6-3.1.6-3.6.5-7.3.4-11 .6-6.6.2-13.1.8-19.6 1.4-14.4-.6-28.8-1.6-43.3-2-1.6 0-3.2.3-4.7.8h-4.4c-3.7-3-8.3-4.7-13.4-4.7-6.7.1-13.4-.6-20.1-1.3-.5-.1-2.5-.3-3.3-.4-.7-.1-1.4-.2-1.6-.3-3.4-.6-6.7-1.2-10-1.9-12.7-2.8-25.2-6.9-37.3-11.5-2.9-1.1-5.9-2.3-8.8-3.5-1.5-.6-2.9-1.2-4.4-1.8-.6-.2-1.1-.5-1.7-.7-6.1-2.6-12.3-5.3-18.4-7.9-13.4-5.7-26.8-11.5-40.4-16.4-14.1-5.1-28.5-9.3-43.2-11.9-2.3-.4-4.5-.5-6.7-.4-8.7-4.4-10.4-3.9-19.3-8-27-12.7-72-24.1-102.1-25.6-3.4-.2 3.4-2.9.8-.9.7.9 1.2 2.1 1.1 3.6 0 1 0 2 .1 2.9 4.4 5.1 8.5 10.4 12.4 15.9 1.8.5 3.5 1.7 4.3 3.7.1.4.3.7.5 1.1 8.7 7.8 18 15.1 25.8 23.8.8.1 1.5.3 2.1.7 3.8 2.6 7.4 5.2 10 9 .4.6.6 1.2.7 1.9 11.2 6.7 22.6 13.3 34.3 19.2 4.9 2.6 9.8 5.2 14.8 7.7 22.7 13.8 47.5 24.6 73.1 31.2 1 .2 1.9.4 2.9.5 6.1 2.7 12.2 5.3 18.4 7.7 1.2-.8 2.6-1.2 4.4-.8 26.6 5.5 54.4 4 81.1 8.9.9-.7 2-1.1 3.4-1.1 7.9 0 15.9.4 23.8 1.1 22.1.1 45-11 67.2-11.1.8-.6 1.9-1 3.1-1h3c1 0 1.9.2 2.6.6.6-1.1 1.6-1.9 2.9-2.4 5.6-2 11.2-3.6 17-4.4 11.1-4.5 21.7-10.2 32.5-15.2 6.3-2.9 12.7-5.8 19.4-7.9 2.1-1.5 4.2-3 6.2-4.6-1.5-1.5-3.9-2.5-6.9-2.2zm187.3-217.3c1.3-2.4 2.2-5 2.5-7.7.2-2.1-.7-4-2.1-5.5v-.3c-.7-3.6-5-4.2-7.5-2.4-1 .2-1.9.5-2.7 1.1-1.8 1.3-3.2 2.8-4.4 4.4-2.9 2.3-4.5 5.3-6.9 8.2-2.5 3.1-5.2 6.1-7.9 9.1l-.3.3c-2.5-.2-5.1.3-7.2 1.9-15.8 11.9-35.5 17.1-43.6 36.6-11.6 11-23.3 21.9-33.5 34.4-1.7 2.1-3 4.5-3.7 6.9-11.9 6.5-23.7 12.9-34.7 20.9-1.6 1.2-2.9 2.7-3.6 4.4-7.8 5.3-15.8 10.1-23.4 15.7-2.9 2.2-4.7 5.4-3.7 9.1.9 3.2 4.3 6.3 7.8 5.9 14.1-1.4 28.1-4.1 41.8-7.5 14.2-3.5 28.7-7.7 41.8-14.3 21.8-11 47.6-22.6 60.4-44.6 2.5-4.3 2.5-8.7.9-12.5 6.9-10.5 14.1-21.1 17.2-33.5.4-1.4.5-2.8.4-4.2 4.9-8.1 10.3-17 12.4-26.4z" fill="#7e9260"/><g fill="#231f20"><path d="M413.142 305c0-.1.1-.2.1-.3 1.4-3.3.2-7.6-3.2-10.2-3.9-3.1-11.2-2.8-11.2-2.8s-4.5 9.1 1.3 15.3c.2.2.4.4.6.5l.1.1c3.5 2.9 8.8 1.9 11.4-1.4.2-.2.3-.4.5-.7.1-.1.2-.3.2-.4.1.1.2 0 .2-.1zm10.4 47.9c2.4 3.6 6 6.5 10.6 7.8 1.5.4 3.1.6 4.7.6 7.6-.2 15.9-5 17.9-11.2.7-2.1-.3-5.5-2.4-8.9-1.3-2.1-3-4.2-4.9-6-2.1-1.9-4.4-3.4-6.9-4.1-3.5-1-7.7-.1-11.4 1.6-5.5 2.5-10.1 6.8-10.4 9.6-.2 2.2.1 4.3.7 6.4.6 1.4 1.3 2.8 2.1 4.2zm71.2-58s-6.8-3.3-12-1c-4.5 2-7.2 6.4-5.7 10.5 1.5 4.2 6.7 6.8 11.1 4.5.7-.4 1.3-.8 1.9-1.2 5.4-4.3 4.7-12.8 4.7-12.8z"/><path d="M758.042 366.8l-.3-7.8c-2.9-55.2-17.6-107.1-41.4-153.3-1.3-2.6-2.7-5.2-4.1-7.7-64.4-118.4-189.7-198-332.8-198-6.8 0-13.7.2-20.6.5-51.1 2.8-100.1 15.5-145.7 37.7-20.9 10.2-40.7 22.2-59.2 35.9-3.7 2.7-7.3 5.5-10.9 8.3-16.4 13.1-31.7 27.5-45.9 43.3-32.9 36.6-58 78.6-74.7 124.7-17.2 47.7-24.6 97.9-21.9 149 3.1 58.2 19.2 112.7 45.4 160.9 1.2 2.1 2.3 4.2 3.5 6.3 2.4 4.2 4.9 8.5 7.5 12.6l4.2 6.6c6.2 9.6 12.9 18.9 20 27.9 2 2.6 4.1 5.1 6.2 7.7 69.7 83.9 174.6 137 291.5 137 6.8 0 13.7-.2 20.6-.5 51.1-2.7 100.2-15.4 145.8-37.6 12.3-6 24.2-12.6 35.7-19.9 8.9-5.6 17.6-11.5 26-17.9 19.6-14.7 37.7-31.4 54.3-49.8 13.8-15.3 26.2-31.6 37.2-48.7 2.9-4.5 5.6-9 8.3-13.5 11.6-19.8 21.4-40.7 29.3-62.4 14.6-40.3 22.1-82.4 22.4-125.3-.1-5.4-.2-10.7-.4-16zm-6.7 14.2c-13.7 28.1-30.1 57.5-49.4 86.9-18.2 27.7-37.3 52.6-57.2 74.8-24-12.1-9.9-63.8-6.7-74.3 8.5-28.2 25.6-52.9 48.2-69.3 4.6-3.4 9.6-6.6 14.5-9.7 15.1-9.6 30.7-19.6 38.9-37.4 4.7-10.2 6.5-21.2 7-32.3 2.1 13 3.5 26.2 4.3 39.7.2 7.2.4 14.4.4 21.6zm-15-106.4c.3 2.5.5 5.1.8 7.6 2.6 22.9 5.2 46.6-4 66.8-7.3 16-21.4 24.9-36.3 34.4-4.9 3.1-10 6.4-14.8 9.9-23.8 17.4-41.8 43.3-50.7 73-4.7 15.8-17.4 66.3 8.6 81.6-27.2 29.4-55.8 53.6-85.8 72.5-22.4-43-24.1-98-4.1-149.6 17.5-45.3 52.2-84.4 95.1-107.3 2.8-1.5 5.7-3 8.6-4.5 24.2-12.5 51.7-26.6 54.3-59.2.8-10.1-1.1-20-2.9-29.6-.6-3.3-1.3-6.8-1.8-10.1-2.4-15.6-.9-27.2 4.8-35.4l-.4-.3c1.4-3.1 2.9-6.1 4.3-9.1.2-.5.5-1.1.7-1.6 9.5 19.4 17.4 39.8 23.6 60.9zm-509.7 193.3l-.8-1.5-.2-.2c-5-7.5-10.4-9-14-9-4.5 0-8.9 2.5-11.8 6.8-14.5 21.3-28 26.1-50.2 29.6 2.4-4 4.1-8.4 4.8-13.1l1.2-6.9-6.2 3.2c-3.7 1.9-7.4 4.6-10.9 7.2-3.5 2.5-6.7 4.9-10 6.6-2.1 1.1-4.9 2.4-7.8 3.8-8.4 3.9-17.9 8.4-23.3 13.1-4.4 3.9-8.1 8.3-10.7 13-1.5-28 19.2-60.7 41.8-72.9 19.8-10.7 40.9-12.1 62.5-12.7 1.5 0 3.2 0 5 .1 6.5.2 13.8.5 18.5-4.5l.4-.4.2-.5c.7-1.5 1.5-3.2 2.3-4.9 6.6 8.5 17.2 13.8 25.9 15.9 3.2.8 7.8 1.6 13.5 1.6 7.3 0 16.2-1.3 26-5.7l11.6-5.2-12.6-1.4c-11.6-1.3-27.5-8.2-33.2-17-.8-1.2-1.5-2.3-2.2-3.3-4.8-7.1-7.4-11-5.7-24.2 17.1-26 38.8-54.2 56.4-67.8 17.5-13.5 40.3-23.5 74.1-32.4 1.5 1.7 3.2 3.1 4.9 4.4-.1 1.9-.1 3.4 0 4.6 1.9 26.9 25.4 64.7 54 74.9 5.2 1.9 10.4 2.8 15.6 2.8 3.2 0 6.4-.4 9.5-1.1 20.9-4.8 46.3-17.9 64-37.7-4.9 36 4.1 82.3 33.3 96.8-3.1 3-6.3 6-9.4 9-13-.1-32.9-7.5-47.7-13.1-3.3-1.2-6.4-2.4-9.3-3.4 17.8-16.3 30.9-44.4 28.8-62.9l-.8-7.1-5.1 5c-15.1 14.8-35.2 30.3-42.8 29.6-4.9-.4-12.2-3-19.3-5.5-8.3-2.9-17-6-23.4-6.2-16.6-.5-38.6 12.1-47.9 18.5l-11.5 7.9 13.9-1.6c12.9-1.5 33.6 1.8 47.5 8.6 14.6 7.1 23.8 14.8 25.1 24.6l.9-.1c-5 9.1-7.1 24.1 0 49 1 3.6 3.4 9.2 6.1 15.8 5.2 12.4 14.9 35.5 11.9 41.7-.1.1-.1.2-.2.3-28.5-11.8-59.4-46.7-77.6-76.4-14.1-21.7-36.5-29.6-57.1-20.2-16.5 7.6-24.7 22.7-32.7 37.3-3.7 6.7-7.4 13.6-11.9 19.5-7.7 10.1-19.4 19.7-35.9 29.2-3.7 2.1-6.8 3.7-9.6 5-11.6 5.7-16.6 8.9-25.4 31.7-.1.3-.3.9-.6 1.5-6.2 17.2-9.6 20.1-10.6 20.6l-.7-.6h-.6c-2.5-3.3-2.3-23 1.7-44.5 1.3-6.7 7.9-19.6 12.3-28.2 1.2-2.4 2.3-4.5 3.1-6.2 1.4-2.9 2.6-6.1 3.9-10.2 1-3.2 1.8-5.7 2.5-7.8 3.4-10 3-11.2-3.5-22.8zm6.8-71.3c.8 7.2 3.6 11.3 7.2 16.7.7 1 1.4 2.1 2.1 3.2 4 6.2 13.6 13.3 25.6 17.3-7.9 1.7-16 1.7-23.2-.1-8.4-2.1-18.9-7.4-23.9-16.2 3.3-6.2 7.5-13.4 12.2-20.9zm312.9-164.7c0 13.4-3.9 31.1-12.5 41.8-4-7.5-9.7-13.8-14.7-19.2-5.5-6-10.7-11.7-11.1-16.4-.2-1.7 1.5-6.3 5.7-10.9 4.1-4.5 13.1-11.8 29-12.6 1.9 2.8 3.6 8.3 3.6 17.3zm-37.7-9.4c-5 5.4-7.9 11.8-7.5 16.2.6 7 6.3 13.2 12.9 20.5 10.9 11.9 23.2 25.5 15 45.6-7.7 18.9-24.2 34.7-42.3 45.4 1.1-4.6.2-8.9-1.1-12.3-6-15.3-28.9-28.9-42.8-28.8-11.5 0-28.5 7.2-35.9 18.8-2.3 3.7-3.6 7.5-3.8 11.5-11.3-14.2-19-31.9-20-45.9-.8-11.1 4.9-28.5 23-44 1.2-1 2.3-3 1-7-.6-1.9-3.2-8.4-11.4-14.8-3.2-2.5-6.7-4.5-10.6-6.2 3.3.3 6.5 1 9.4 1.9 4.2 1.3 8.1 2.2 12 3.1 2.6.6 5.3 1.2 8.1 1.9 12.3 3.3 30 4.9 41.2 3.7 16.3-1.7 35.2-4.8 51.4-14.1 10.8-6.2 18.3-8.4 23.7-8.5-11.5 3-18.6 9-22.3 13zm-95.9 109.1c6.2-9.1 20.3-15.5 30-15.5 10.3 0 31 11.2 36.2 24.4 2.3 5.9 1 11.1-4.1 15.9-7.2 3.3-14.5 5.8-21.3 7.4-6.9 1.6-14.1 1.1-21.2-1.5-7.6-2.7-14.8-7.7-21.3-14 .1 0-4.3-7.9 1.7-16.7zm-45.4-107.4c22.9 2.1 32.2 16.4 33.2 20.6-9.2 8.1-16 17.1-20.2 26.8-1.5 3.4-2.4 6.5-3.1 9.4-8.1-8.2-15.1-24.2-16.1-38.4-.6-8.6 1.2-15.1 4.9-17.7.5-.2.9-.4 1.3-.7zm111.2 195.4c-5.5-1-13.1-.2-19.7 4.8-.9.7-1.8 1.5-2.7 2.3-3.6-10.1-13.4-17.5-27.6-24.4-10.7-5.2-27.1-8.5-38.4-9.4 8.6-4.7 23.3-11.1 33.2-10.8 5.4.2 13.5 3 21.3 5.8 7.8 2.8 15.2 5.4 21 5.9h.9c11.4 0 31-16.5 41.4-26-1.9 18.1-15.6 40.6-29.4 51.8zm-15.5 10.4c6.5-5 14.5-4.1 17.1-2.5l.3.2.4.1c3.5 1.2 7.8 2.8 12.2 4.5 13.6 5.1 29.9 11.2 43.2 13-11 10.1-22.2 19.6-33.5 28.6-12 9.5-24.2 18.4-36.5 26.6-.7-1.7-1.4-3.4-2.2-5.2-2.7-6.3-5-11.8-5.9-15-6.9-24.8-5.2-42.6 4.9-50.3zm5.8 76.9c7.4-4.9 14.9-10.1 22.2-15.6-7.4 8.3-13.7 15.7-19.4 23-.8-2.4-1.7-4.8-2.8-7.4zm-38.6 15.2l-.1-.2c-10.1 5.1-20 10.1-29.5 15.3-17.1 8-34.9 15.1-53.9 21.6-2.1-13.8-26.9-39-30.3-41.6l-.1-.1c-.7-.5-1.5-1.1-1.6-1.5-.2-.5.6-1.9 2.1-3 18.7-13.4 32.2-41.4 32.1-66.2 15.9-1.7 29.1 8.7 36.9 20.7 11.3 18.4 27.4 38.7 44.9 54.7-.3.2-.4.3-.5.3zm-88.4-74.1c-.5 22-12.8 47.2-29.1 58.9-3.5 2.5-6.3 7-4.5 11.3.9 2.1 2.6 3.5 3.8 4.4l.1.1c1.6 1.2 8.8 8.5 15.8 17.2 7.8 9.7 11.1 16.1 11.8 19.4-7.4-4.9-14.7-10.9-21.8-16.7-12.2-9.9-23.7-19.3-35.9-24.3 5.4-4.6 9.9-9.3 13.5-14.1 4.8-6.3 8.7-13.4 12.5-20.3 7.8-14.2 15.2-27.7 29.5-34.3 1.4-.6 2.9-1.2 4.3-1.6zm-28.3 100.1c5.2 4.2 10.4 8.5 15.8 12.5l-1.7-.2c-30.3-3.3-61.5-6.7-93.9-9.1 3.9-5.9 7.7-7.7 13.8-10.7 2.9-1.4 6.1-3 10-5.2 7.9-4.5 14.7-9.1 20.6-13.7l-.9 2.5c12 4.1 23.8 13.7 36.3 23.9zm-88.4 21.8c.2-.6.4-1.1.5-1.4 1.6-4.2 3-7.6 4.4-10.5 31.5 2.2 61.9 5.5 91.3 8.7-30.7 8.9-64.7 16.4-103.6 22.9l.1.6c-.6-.1-1.3-.2-1.9-.4 2.8-4 5.8-10.4 9.2-19.9zm115.4-1.7l.4.2 1.8-.9c.1 0 .1-.1.2-.1 6.5-2.1 12.8-4.3 19-6.6-19.3 13.6-36.3 29.2-50.2 48.9-6.9-1.5-13.9-3-21-4.5-18.3-4-36.6-7.9-55-11.6 39.3-7.1 73.7-15.4 104.8-25.4zm63.2-24.7c11.1-5.2 21.8-10.7 32.4-16.6 5.6 4.8 11.4 9 17.2 12.6-20.8 31.4-31.3 60.6-32.2 89.1-10.3-1.1-20.7-2.4-31.3-4-22.9-3.4-46.4-8.1-70.7-13.2 21.6-29.5 50.9-49.6 84.6-67.9zm55.7-.6c2.9 1.6 5.9 2.9 8.8 4.1l1.1.4 1.1-.3c2.4-.7 4.3-2.2 5.4-4.5 2.2-4.5 1.3-11.5-1.4-20.4 9.2-11.8 19.7-24 33.8-39.3 5.7-6.1 11.4-11.5 18-17.7 7.1-6.6 15.1-14.1 25.3-24.6 4.5-4.2 8.9-8.5 13.2-12.9-8.5 12.8-15.7 26.4-21.2 40.6-20.7 53.6-18.8 110.9 4.7 155.8-2.6 1.6-5.3 3.2-8 4.7-35 3.9-72.5 4-112.1.3.7-27.3 11-55.6 31.3-86.2zm235.7-292.9c.1 3.5.5 7.2 1.1 11.2.5 3.5 1.2 7 1.9 10.3 1.8 9.6 3.6 18.6 2.8 27.7-2.3 28.7-26.8 41.4-50.5 53.6-2.9 1.5-5.8 3-8.6 4.5-11.5 6.1-22.4 13.4-32.6 21.6 33.6-40.2 63.1-84.2 85.9-128.9zm-479-205.5c44.8-21.8 92.9-34.3 143.1-36.9 6.7-.4 13.5-.5 20.2-.5 142.3 0 266.6 80.2 329.1 198.8-1 2.2-2 4.4-3 6.5-3.6 7.7-7.3 15.7-11 23.3-10.9 22.4-23.8 45.2-38.3 67.6.6-6 1-12.6.5-17.5-3.5-31.1-16.1-61.3-36.2-87.4-20.1-26.1-46.6-46.5-76.4-58.8-29.8-12.3-63.4-16.7-97.2-12.8-32.4 3.8-62.8 15-88.3 32.5-7.3-10.7-19.3-18.6-33.6-21.9-14.1-3.3-28.4-1.6-40 4.5-3.1-23-20.2-44.7-45.1-56.7-19.5-9.3-43.3-13.3-72.8-12 15.5-10.7 31.9-20.3 49-28.7zM7.542 399.1c-2.7-50.2 4.5-99.4 21.5-146.2 16.4-45.3 41-86.4 73.3-122.4 16.5-18.3 34.5-34.8 53.9-49.3 1.5-.1 2.9-.2 4.4-.3 31.4-2.1 56.3 1.5 76.2 11 24.7 11.8 41 33.9 41.5 56.4l.2 6.6 5.4-3.8c10.7-7.4 25.1-9.8 39.4-6.5 13.7 3.2 25.1 11.1 31 21.7l2 3.5 3.3-2.3c25.1-18.1 55.5-29.6 88.1-33.4 32.5-3.8 64.9.5 93.6 12.3 28.7 11.8 54.1 31.4 73.5 56.5s31.4 54.1 34.8 83.9c1.1 10-2.5 29.9-2.5 30.1h.2c-11 16.2-22.8 32.2-35.3 47.6-17 21-35.2 41.2-54.1 60-13.9-5.8-24.4-20.8-29.6-42.5-4.8-19.9-4.5-43 .7-61.9 2.5-4 4.7-8.2 6.5-12.6 4.1-10.1 3.9-18.9 1.4-26.6 8.5-8.9 16.5-26.7 16.4-48.9 0-6.6-.9-18.5-7-23.8-.2-.2-.4-.3-.6-.4v-.1h-.1c-14.3-11.7-33.7-.5-42 4.3-15 8.7-33 11.5-48.7 13.2-10.3 1.1-27.3-.4-38.6-3.5-2.9-.8-5.7-1.4-8.4-2-3.9-.9-7.5-1.7-11.4-2.9-9.8-3.1-24.8-4.3-34.5 2.6-5.8 4.2-8.6 12.6-7.8 23.9.8 11.4 5.3 25.4 12.3 35.7-33.1 9-55.9 19.2-73.7 32.9-18.3 14.1-40.3 42.5-57.6 68.9l-1.2 1.8c-11.1 17-20.1 32.9-24.9 43.5-2.6 2.3-7.7 2.1-12.7 2-1.8-.1-3.6-.1-5.4-.1-22.5.6-44.5 2.1-65.7 13.5-14.1 7.6-27.6 22.5-36.2 39.7-9.4 19-11.8 38-6.7 53.7l4.4 13.5 2.4-14c1.3-7.7 5.9-15.3 13-21.5 4.6-4.1 14.1-8.5 21.6-12 3-1.4 5.8-2.7 8.1-3.9 3.7-1.9 7.4-4.6 10.9-7.2.7-.5 1.3-1 2-1.5-1.5 2.9-3.4 5.4-5.7 7.6l-8 7.5 10.9-1.5c28.7-4 45.8-7.6 63.7-33.9 1.6-2.3 3.8-3.7 6-3.7 2.7 0 5.5 2 8.1 5.8l.7 1.3c2.8 5 4.4 7.8 4.7 9.7.3 1.6-.2 3.1-1.7 7.4-.7 2.1-1.6 4.7-2.6 8-1.1 3.7-2.2 6.6-3.4 9.1-.8 1.6-1.9 3.7-3.1 6.1-4.9 9.5-11.5 22.4-13 30.1 0 .1-.6 3.1-1.2 7.6-58.6-2.6-106.9.4-147.2 9.4-26.3-47.8-42.4-101.9-45.5-159.7zm49.1 165.9c39.2-8.5 86-11.3 142.7-8.8-1.2 10-2.1 22.8-.2 30.6-45.4-7.7-90.6-12.1-134.3-8.3-2.9-4.4-5.6-8.9-8.2-13.5zm485.5 148.9c-44.8 21.8-92.9 34.3-143.1 36.9-6.7.4-13.5.5-20.2.5-112 0-212.9-49.7-281.2-128.7 52.7 7.4 106.1 26.8 158.3 45.8 30.2 11 58.7 21.4 86.7 29.3 46.1 13.1 89.9 19.7 130.9 19.7 15.5 0 30.5-.9 45.2-2.8 11.6-1.5 22.9-3.6 34.1-6.2-3.6 1.9-7.2 3.7-10.7 5.5zm113.8-86c-23.1 25.7-49.3 47.8-78.2 66-19.3 6.5-39.3 11.1-60 13.8-52.4 6.7-110.7 1.1-173.2-16.6-27.8-7.9-56.2-18.2-86.2-29.2-55.2-20.1-111.5-40.6-167.4-47.2-7.7-9.5-15-19.3-21.8-29.6 71.1-5.4 146.5 10.9 220.1 26.9 34.8 7.5 67.6 14.7 99.6 19.4 33.1 4.9 65 7.4 95.3 7.4 24.2 0 47.5-1.6 69.7-4.7.1.1.1.2.2.4l.8-.5c10.5-1.5 20.7-3.3 30.7-5.5 35.5-7.8 68.6-20.1 99-36.7-8.7 12.6-18.2 24.6-28.6 36.1zm73.4-122.4c-9.3 25.8-21.4 50.3-36 73.2-33.2 19.9-69.7 34.2-109.3 42.9-8.6 1.9-17.4 3.5-26.4 4.9 41.1-25.8 79.7-61.5 115.4-106.6 23.3-12.3 45.4-27.4 65.7-44.9-2.6 10.3-5.8 20.5-9.4 30.5zm12.5-42.5c-18 16.3-37.4 30.7-57.9 42.8 8.1-10.9 16.1-22.2 23.8-34.1 16.4-25 30.7-50.1 43.1-74.3-1 22.2-4 44.1-9 65.6z"/></g><path d="M479.742 355c1.8-3.6 3.1-7.8 3-11.9-.2-6.9-1.4-17.1-1.4-17.1l-5.5-7.8c-.9-4.5-6-3.7-10-6.6-1.9-1.4-3.6-2.2-5.4-2.6-1-.6-.7-3.8-1.8-4.1-2.5-1.3-6.5.6-9.2.2-9-5-21-2.1-28.7 3.6-4.9 3.7-9.4 7.7-12.6 13-2.3 3.8-6 8.8-6.4 13.2h.2c-.5 2.3-3 3.2-2.6 5.3 0 0-.1 0-.1.1-7.5 6.5-9.5 21.9-3.7 30-1 5.3 4.3 13 8.9 15.2.5.3 1 .6 1.5.7.2 0 .5.1.7.1 2.3.5 2.6 4.4 5 2.5 5.5-4.3 11.2-5.2 17.8-7.4 1.4.1-.2-.2 1.2-.3 1.8-.2 4.7-2.2 6.5-2.5 6.3 2.2 15.8 1.3 21.8-.9 1-.3 7.6-5.4 8.5-5.9 3.8-1.8 4-6.1 7.1-9.1-2.9 2.7 2.1-1.9 2.6-2.5 1.4-1.4 1.7-3.4 2.6-5.2z" fill="#f0b27b"/><path d="M403.542 325.6c-8-2.2-13.9-8.1-20.2-12.7-11.1-8-17.4-19-14.2-29.8l6.9 6.7c-.4 7.7 6.4 12.9 12 18 5.1 4.7 10.8 9.3 17.4 11.1l-1.9 6.7z" fill="#fff"/><path d="M405.342 391.7l-1.3-1.8c-15.9-22.2-14.5-47.2-5.9-62 12.7-22.2 32-32.1 54.3-27.9l.4.1c.9.3 22.3 7.4 30.8 24.5 4.1 8.2 4.5 17.2 1.2 26.7-5.4 15.9-21.5 33.5-49.5 33.5-1.4 0-2.9 0-4.4-.1-4.3 1.7-10.5 3.9-23.4 6.5l-2.2.5zm37.4-85.7c-15.7 0-29.2 8.8-38.7 25.3-7.2 12.5-8.5 33.4 4.3 52.7 12.7-2.7 17.7-4.8 21.8-6.4 1.3-.5 2.5-1 3.9-1.5 17.9-6.2 28.1-21.8 35.8-36.2l6.1 3.2c-6.3 12-14.4 24.7-26.9 33.1 5.8-1.6 11-4.2 15.6-7.9 9.1-7.3 12.7-16.6 13.6-19.2 2.6-7.8 2.3-15-.9-21.4-6.8-13.7-24.5-20.2-26.6-20.9-2.6-.6-5.3-.8-8-.8z" fill="#231f20"/><circle cx="504.6" cy="372.4" r="7.9" fill="#231f20" transform="translate(-46.058 -46)"/><path d="M603.742 295.6c-.9-4.6-4.3-8.5-10.4-11.8-9-4.9-19.4-7.5-29.9-7.5-6.8 0-13.4 1.1-19.6 3.2-.4-1.4-1.2-2.7-2.4-3.8l-4.5 5.2c.8.6.7 3.4-.2 5.5-.9 2.3-2.6 4.9-4.1 6.3-8.3 8-15.9 13.8-23.8 18.1-12 6.6-26.7 10.3-47.6 12-1.9.1-3.3 1.8-3.2 3.7.1 1.8 1.7 3.2 3.4 3.2h.3c22-1.7 37.6-5.7 50.5-12.8 8.4-4.7 16.4-10.8 25.2-19.2.8-.8 1.6-1.7 2.3-2.7-2 10.8-2.7 21.8-2.1 32.7l6.9-.4c-.4-7.3-.2-14.6.6-21.8 3.3 11.1 8.2 22.1 14.4 31.5l5.8-3.8c-8.2-12.6-14.2-28.3-16.5-42.9 6 4.7 11.9 8.2 17.9 10.8 7.4 3.2 15.2 4.9 22.5 4.9 2.2 0 4.3-.1 6.4-.4 1.4-.2 5.5-.8 7.5-4.2.8-1.7 1.1-3.7.6-5.8zm-6.7 2.3s-.3.5-2.4.8c-7.9 1.1-16.8-.3-25.3-4-5.7-2.4-11.3-5.9-17.1-10.5 3.7-.8 7.4-1.1 11.2-1.1 9.4 0 18.6 2.3 26.6 6.7 4.2 2.3 6.5 4.6 7 7.1.1.6 0 1 0 1z" fill="#fff"/></svg>